<svg width="22" height="22" viewBox="0 0 22 22" fill="none" xmlns="http://www.w3.org/2000/svg">
<path fill-rule="evenodd" clip-rule="evenodd" d="M9.57792 0.466797C4.47237 0.466797 0.333496 4.60567 0.333496 9.71122C0.333496 14.8168 4.47237 18.9557 9.57792 18.9557C14.6835 18.9557 18.8224 14.8168 18.8224 9.71122C18.8224 4.60567 14.6835 0.466797 9.57792 0.466797ZM1.75572 9.71122C1.75572 5.39114 5.25784 1.88902 9.57792 1.88902C13.898 1.88902 17.4001 5.39114 17.4001 9.71122C17.4001 14.0313 13.898 17.5334 9.57792 17.5334C5.25784 17.5334 1.75572 14.0313 1.75572 9.71122Z" fill="white"/>
<path d="M17.666 16.7937C17.3883 16.5159 16.938 16.5159 16.6603 16.7936C16.3826 17.0714 16.3826 17.5216 16.6603 17.7993L20.4528 21.5918C20.7305 21.8696 21.1808 21.8696 21.4585 21.5919C21.7362 21.3141 21.7362 20.8639 21.4585 20.5862L17.666 16.7937Z" fill="white"/>
</svg>
